<svg id="svg" version="1.1" xmlns="http://www.w3.org/2000/svg" xmlns:xlink="http://www.w3.org/1999/xlink" width="400" height="400" viewBox="0, 0, 400,400"><g id="svgg"><path id="path0" d="M84.400 99.836 C 67.895 101.215,64.712 101.981,56.200 106.618 C 53.560 108.057,49.150 110.314,46.400 111.635 L 41.400 114.036 34.495 121.118 C 26.844 128.966,26.332 129.752,24.671 136.200 C 19.371 156.775,23.314 179.879,32.928 184.582 C 47.500 191.712,55.588 181.971,51.766 161.897 C 50.361 154.516,51.402 144.849,53.987 141.282 C 55.241 139.550,64.776 132.213,68.200 130.345 C 72.480 128.009,80.503 126.594,87.868 126.874 C 98.055 127.263,100.076 131.778,98.216 150.000 C 95.331 178.276,91.779 188.367,81.848 196.499 C 73.042 203.711,72.716 210.096,80.625 220.468 C 87.240 229.144,87.502 242.224,81.310 254.643 C 73.270 270.766,71.564 272.802,64.912 274.211 C 53.860 276.553,45.059 271.752,38.200 259.641 C 33.051 250.550,25.811 247.384,16.558 250.180 C 13.039 251.243,8.402 256.555,8.400 259.525 C 8.400 260.167,6.486 267.090,6.002 268.200 C 5.810 268.640,5.438 269.720,5.175 270.600 C 4.913 271.480,4.568 272.560,4.410 273.000 C 4.252 273.440,4.155 274.205,4.194 274.700 C 4.234 275.195,4.106 275.600,3.910 275.600 C 3.713 275.600,3.664 275.780,3.800 276.000 C 3.936 276.220,3.867 276.400,3.647 276.400 C 3.426 276.400,3.315 276.760,3.400 277.200 C 3.521 277.829,3.339 278.000,2.548 278.000 C 1.634 278.000,1.600 278.057,2.171 278.629 C 2.997 279.454,3.002 280.266,2.177 279.581 C 1.835 279.297,1.586 279.230,1.625 279.432 C 1.802 280.365,1.540 280.710,0.800 280.516 C -0.273 280.235,-0.463 292.318,0.600 293.200 C 1.122 293.633,1.200 293.388,1.200 291.316 C 1.200 288.911,2.212 287.795,2.700 289.662 C 2.805 290.063,3.045 290.296,3.234 290.179 C 3.422 290.063,3.687 290.470,3.822 291.084 C 4.302 293.270,4.520 293.389,4.848 291.645 C 5.206 289.737,5.596 289.010,5.606 290.233 C 5.611 290.811,5.696 290.867,5.953 290.462 C 6.204 290.067,6.366 290.212,6.566 291.007 C 6.812 291.986,6.903 292.033,7.519 291.499 C 9.880 289.453,26.921 292.429,34.181 296.155 C 40.225 299.258,49.110 300.800,60.940 300.800 C 75.402 300.800,82.197 299.068,89.800 293.445 C 98.729 286.841,98.670 286.897,104.033 279.769 C 111.157 270.300,111.473 269.572,114.592 255.400 C 119.491 233.144,122.658 227.241,129.716 227.209 C 133.291 227.192,134.970 228.502,138.565 234.107 C 139.802 236.036,141.893 239.070,143.212 240.848 C 145.982 244.585,147.762 248.134,149.751 253.886 C 151.712 259.559,152.692 261.499,156.490 267.225 C 158.310 269.970,160.771 274.102,161.958 276.408 C 164.678 281.691,166.572 284.085,170.600 287.325 C 172.360 288.741,175.240 291.204,177.000 292.799 C 183.277 298.488,188.947 300.143,202.200 300.157 C 215.231 300.170,219.125 299.228,226.383 294.307 C 240.118 284.994,246.477 284.956,262.010 294.098 C 271.236 299.528,278.017 300.603,303.000 300.595 C 328.072 300.586,335.424 299.323,345.903 293.223 C 348.160 291.909,352.120 289.805,354.703 288.547 C 359.447 286.238,363.137 283.129,371.225 274.627 C 374.111 271.593,375.904 266.605,378.422 254.600 C 381.267 241.040,377.253 222.295,369.987 215.200 C 358.763 204.242,355.945 202.184,347.743 198.957 C 344.157 197.546,339.995 195.527,337.208 193.846 C 331.343 190.309,328.657 189.097,323.310 187.573 C 314.446 185.047,312.744 184.297,306.400 180.118 C 304.090 178.597,300.340 176.309,298.067 175.035 C 291.169 171.168,289.714 169.432,287.318 162.205 C 284.124 152.571,285.791 143.316,291.784 137.400 C 301.147 128.159,311.763 124.985,328.744 126.348 C 341.063 127.338,344.279 128.767,349.974 135.789 C 355.456 142.548,355.979 143.865,356.411 152.000 C 357.244 167.717,361.347 174.400,370.162 174.400 C 384.003 174.400,389.929 164.547,393.015 136.400 C 393.365 133.210,393.742 130.150,393.853 129.600 C 393.965 129.050,394.088 126.748,394.128 124.485 C 394.180 121.505,394.350 120.278,394.745 120.034 C 395.206 119.749,395.206 119.657,394.745 119.444 C 394.445 119.305,394.589 119.262,395.065 119.349 C 396.107 119.539,396.587 118.288,395.897 117.184 C 395.496 116.542,395.394 116.529,394.995 117.074 C 394.594 117.623,394.474 117.617,393.873 117.016 C 393.242 116.385,393.199 116.414,393.188 117.471 C 393.177 118.435,393.116 118.497,392.766 117.897 C 392.541 117.510,392.484 116.987,392.640 116.735 C 392.821 116.443,392.746 116.386,392.435 116.579 C 392.166 116.745,392.031 117.103,392.135 117.374 C 392.239 117.645,392.079 117.867,391.779 117.867 C 391.480 117.867,391.320 117.729,391.424 117.561 C 391.528 117.393,391.449 117.154,391.248 117.030 C 391.048 116.906,390.765 117.114,390.620 117.491 C 390.416 118.025,390.285 118.061,390.034 117.655 C 389.856 117.367,389.596 117.147,389.455 117.166 C 389.315 117.185,389.155 117.175,389.100 117.144 C 389.045 117.114,388.362 117.054,387.583 117.012 C 385.702 116.910,381.926 115.149,380.304 113.617 C 378.976 112.363,375.721 111.129,372.400 110.621 C 369.243 110.138,365.810 108.829,362.762 106.947 C 352.884 100.847,347.280 99.798,324.600 99.805 C 305.193 99.811,297.591 100.750,291.272 103.922 C 268.881 115.161,268.041 115.772,260.539 126.273 C 251.567 138.830,250.593 141.464,250.140 154.400 C 249.588 170.178,251.018 174.675,260.454 186.826 C 267.752 196.224,268.237 196.646,277.223 201.431 C 280.400 203.123,284.392 205.483,286.094 206.677 C 290.182 209.544,293.722 211.118,301.144 213.369 C 308.046 215.462,310.368 216.475,316.400 220.025 C 318.710 221.384,322.580 223.306,325.000 224.296 C 333.894 227.933,334.500 228.400,340.183 236.001 C 345.279 242.818,345.400 243.110,345.400 248.600 C 345.400 254.977,344.740 256.228,337.678 263.234 C 328.911 271.929,324.720 273.511,308.600 274.205 C 293.536 274.855,282.056 272.991,277.099 269.090 C 267.490 261.530,265.621 258.331,265.129 248.605 C 264.274 231.695,261.051 226.400,251.611 226.400 C 241.473 226.400,236.808 232.273,234.373 248.101 C 233.043 256.746,232.120 258.240,223.559 265.608 C 215.372 272.654,208.795 272.203,198.719 263.906 C 191.508 257.967,190.673 256.874,187.596 249.341 C 185.752 244.826,183.824 241.312,181.458 238.153 C 180.488 236.859,178.452 233.550,176.933 230.800 C 175.414 228.050,172.462 223.550,170.372 220.800 C 162.084 209.893,162.219 205.724,171.000 201.320 C 175.785 198.920,180.297 195.860,184.200 192.369 C 185.960 190.794,188.750 188.467,190.400 187.198 C 194.526 184.025,196.158 182.409,199.691 178.000 C 201.365 175.910,204.019 172.771,205.587 171.025 C 209.179 167.025,211.301 163.819,214.207 158.000 C 215.470 155.470,217.628 151.780,219.003 149.800 C 222.581 144.644,223.372 142.860,225.796 134.482 C 226.986 130.367,228.432 125.650,229.009 124.000 C 234.053 109.563,224.579 98.155,210.995 102.308 C 204.708 104.230,202.418 106.880,197.228 118.242 C 196.111 120.685,194.209 124.504,193.001 126.728 C 190.602 131.141,189.272 134.313,187.049 140.918 C 185.161 146.526,184.245 148.280,180.443 153.565 C 178.709 155.974,176.339 159.623,175.175 161.673 C 171.655 167.870,170.206 169.752,166.117 173.430 C 163.963 175.368,160.940 178.236,159.400 179.802 C 155.235 184.038,150.346 186.558,142.401 188.561 C 127.001 192.445,124.779 186.238,131.027 156.800 C 133.701 144.202,136.399 136.348,141.538 126.200 C 145.217 118.937,144.734 116.855,137.747 109.840 C 131.550 103.617,126.629 101.657,114.000 100.381 C 109.803 99.957,87.802 99.552,84.400 99.836 M398.800 107.302 C 398.800 107.852,399.070 108.526,399.400 108.800 C 399.906 109.220,400.000 109.141,400.000 108.298 C 400.000 107.748,399.730 107.074,399.400 106.800 C 398.894 106.380,398.800 106.459,398.800 107.302 M396.843 112.667 C 396.819 113.364,396.693 114.264,396.562 114.667 C 396.360 115.290,396.395 115.310,396.792 114.800 C 397.164 114.323,397.211 114.495,397.022 115.644 C 396.892 116.439,396.965 117.519,397.186 118.044 C 397.512 118.822,397.541 118.710,397.338 117.442 C 397.160 116.329,397.219 115.965,397.545 116.166 C 397.795 116.321,398.000 116.966,398.000 117.600 C 398.000 118.234,398.180 118.864,398.400 119.000 C 398.881 119.297,398.885 119.050,398.433 117.103 C 398.230 116.227,398.234 115.697,398.443 115.826 C 398.639 115.948,398.800 116.375,398.800 116.775 C 398.800 117.175,399.070 117.726,399.400 118.000 C 399.916 118.429,400.000 118.275,400.000 116.898 C 400.000 115.256,399.080 113.862,398.670 114.883 C 398.552 115.179,398.447 115.059,398.425 114.600 C 398.396 113.971,398.311 113.921,398.030 114.365 C 397.772 114.773,397.564 114.442,397.279 113.165 C 396.925 111.577,396.881 111.527,396.843 112.667 M394.229 115.580 C 393.552 115.826,393.538 115.891,394.116 116.113 C 394.478 116.251,394.888 116.181,395.027 115.956 C 395.384 115.378,395.124 115.256,394.229 115.580 M2.000 300.102 C 2.000 300.432,2.270 300.926,2.600 301.200 C 3.088 301.605,3.200 301.586,3.200 301.098 C 3.200 300.768,2.930 300.274,2.600 300.000 C 2.112 299.595,2.000 299.614,2.000 300.102 M7.002 307.602 C 7.798 308.482,8.234 308.388,7.862 307.417 C 7.732 307.078,7.322 306.800,6.951 306.800 C 6.335 306.800,6.340 306.870,7.002 307.602 " stroke="none" fill="#000" fill-rule="evenodd"></path><path id="path1" d="M106.000 0.600 C 105.698 0.964,104.822 1.200,103.775 1.200 C 102.825 1.200,101.936 1.380,101.800 1.600 C 101.664 1.820,101.034 2.000,100.400 2.000 C 99.766 2.000,99.143 2.169,99.016 2.375 C 98.728 2.840,96.442 4.000,95.813 4.000 C 95.145 4.000,93.303 6.059,93.134 6.995 C 93.055 7.433,92.633 7.856,92.195 7.937 C 91.111 8.136,90.000 9.179,90.000 10.000 C 90.000 10.963,88.713 12.000,87.517 12.000 C 86.957 12.000,86.274 12.270,86.000 12.600 C 85.726 12.930,84.995 13.200,84.375 13.200 C 83.755 13.200,83.136 13.380,83.000 13.600 C 82.864 13.820,82.425 14.000,82.025 14.000 C 81.625 14.000,81.074 14.270,80.800 14.600 C 80.526 14.930,79.784 15.200,79.151 15.200 C 78.261 15.200,78.000 15.384,78.000 16.013 C 78.000 16.459,77.685 16.929,77.300 17.055 C 75.373 17.689,74.074 18.478,72.822 19.774 C 72.063 20.558,71.154 21.200,70.802 21.200 C 69.979 21.200,69.200 21.979,69.200 22.802 C 69.200 23.619,66.765 26.000,65.930 26.000 C 65.582 26.000,65.074 26.270,64.800 26.600 C 64.526 26.930,63.902 27.200,63.412 27.200 C 62.443 27.200,60.155 28.225,59.784 28.825 C 59.657 29.031,59.242 29.200,58.863 29.200 C 58.010 29.200,54.000 33.194,54.000 34.043 C 54.000 34.383,53.550 35.083,53.000 35.600 C 52.450 36.117,52.000 36.747,52.000 37.000 C 52.000 37.983,48.970 40.000,47.495 40.000 C 46.565 40.000,41.200 44.978,41.200 45.840 C 41.200 46.071,40.750 46.683,40.200 47.200 C 39.626 47.739,39.200 48.587,39.200 49.189 C 39.200 50.654,35.508 54.000,33.892 54.000 C 33.139 54.000,29.200 58.105,29.200 58.889 C 29.200 59.254,29.031 59.657,28.825 59.784 C 28.225 60.155,27.200 62.443,27.200 63.412 C 27.200 63.902,26.930 64.526,26.600 64.800 C 26.270 65.074,26.000 65.601,26.000 65.971 C 26.000 66.796,23.588 69.200,22.761 69.200 C 21.974 69.200,21.200 69.994,21.200 70.802 C 21.200 71.154,20.561 72.062,19.781 72.818 C 18.179 74.371,17.200 76.106,17.200 77.392 C 17.200 77.870,16.750 78.683,16.200 79.200 C 15.650 79.717,15.200 80.457,15.200 80.846 C 15.200 81.235,15.031 81.657,14.825 81.784 C 14.351 82.078,13.200 84.363,13.200 85.012 C 13.200 85.282,12.930 85.726,12.600 86.000 C 12.270 86.274,12.000 86.981,12.000 87.571 C 12.000 88.737,9.806 91.200,8.767 91.200 C 7.736 91.200,4.000 95.309,4.000 96.443 C 4.000 97.011,3.558 97.875,3.000 98.400 C 2.236 99.117,2.000 99.743,2.000 101.046 C 2.000 101.985,1.820 102.864,1.600 103.000 C 1.380 103.136,1.200 103.935,1.200 104.775 C 1.200 105.644,0.942 106.516,0.600 106.800 C -0.488 107.703,-0.289 280.231,0.800 280.516 C 1.540 280.710,1.802 280.365,1.625 279.432 C 1.586 279.230,1.835 279.297,2.177 279.581 C 3.002 280.266,2.997 279.454,2.171 278.629 C 1.600 278.057,1.634 278.000,2.548 278.000 C 3.339 278.000,3.521 277.829,3.400 277.200 C 3.315 276.760,3.426 276.400,3.647 276.400 C 3.867 276.400,3.936 276.220,3.800 276.000 C 3.664 275.780,3.713 275.600,3.910 275.600 C 4.106 275.600,4.234 275.195,4.194 274.700 C 4.155 274.205,4.252 273.440,4.410 273.000 C 4.568 272.560,4.913 271.480,5.175 270.600 C 5.438 269.720,5.810 268.640,6.002 268.200 C 6.486 267.090,8.400 260.167,8.400 259.525 C 8.402 256.555,13.039 251.243,16.558 250.180 C 25.811 247.384,33.051 250.550,38.200 259.641 C 45.059 271.752,53.860 276.553,64.912 274.211 C 71.564 272.802,73.270 270.766,81.310 254.643 C 87.502 242.224,87.240 229.144,80.625 220.468 C 72.716 210.096,73.042 203.711,81.848 196.499 C 91.779 188.367,95.331 178.276,98.216 150.000 C 100.076 131.778,98.055 127.263,87.868 126.874 C 80.503 126.594,72.480 128.009,68.200 130.345 C 64.776 132.213,55.241 139.550,53.987 141.282 C 51.402 144.849,50.361 154.516,51.766 161.897 C 55.588 181.971,47.500 191.712,32.928 184.582 C 23.314 179.879,19.371 156.775,24.671 136.200 C 26.332 129.752,26.844 128.966,34.495 121.118 L 41.400 114.036 46.400 111.635 C 49.150 110.314,53.560 108.057,56.200 106.618 C 66.419 101.050,73.535 99.814,95.400 99.809 C 121.745 99.804,129.606 101.666,137.747 109.840 C 144.734 116.855,145.217 118.937,141.538 126.200 C 136.399 136.348,133.701 144.202,131.027 156.800 C 126.625 177.541,126.633 184.512,131.064 188.403 C 135.348 192.164,152.308 187.016,159.400 179.802 C 160.940 178.236,163.963 175.368,166.117 173.430 C 170.206 169.752,171.655 167.870,175.175 161.673 C 176.339 159.623,178.709 155.974,180.443 153.565 C 184.245 148.280,185.161 146.526,187.049 140.918 C 189.272 134.313,190.602 131.141,193.001 126.728 C 194.209 124.504,196.111 120.685,197.228 118.242 C 202.418 106.880,204.708 104.230,210.995 102.308 C 224.579 98.155,234.053 109.563,229.009 124.000 C 228.432 125.650,226.986 130.367,225.796 134.482 C 223.372 142.860,222.581 144.644,219.003 149.800 C 217.628 151.780,215.470 155.470,214.207 158.000 C 211.301 163.819,209.179 167.025,205.587 171.025 C 204.019 172.771,201.365 175.910,199.691 178.000 C 196.158 182.409,194.526 184.025,190.400 187.198 C 188.750 188.467,185.960 190.794,184.200 192.369 C 180.297 195.860,175.785 198.920,171.000 201.320 C 162.219 205.724,162.084 209.893,170.372 220.800 C 172.462 223.550,175.414 228.050,176.933 230.800 C 178.452 233.550,180.488 236.859,181.458 238.153 C 183.824 241.312,185.752 244.826,187.596 249.341 C 190.673 256.874,191.508 257.967,198.719 263.906 C 208.795 272.203,215.372 272.654,223.559 265.608 C 232.120 258.240,233.043 256.746,234.373 248.101 C 236.808 232.273,241.473 226.400,251.611 226.400 C 261.051 226.400,264.274 231.695,265.129 248.605 C 265.621 258.331,267.490 261.530,277.099 269.090 C 282.056 272.991,293.536 274.855,308.600 274.205 C 324.720 273.511,328.911 271.929,337.678 263.234 C 344.740 256.228,345.400 254.977,345.400 248.600 C 345.400 243.110,345.279 242.818,340.183 236.001 C 334.500 228.400,333.894 227.933,325.000 224.296 C 322.580 223.306,318.710 221.384,316.400 220.025 C 310.368 216.475,308.046 215.462,301.144 213.369 C 293.722 211.118,290.182 209.544,286.094 206.677 C 284.392 205.483,280.400 203.123,277.223 201.431 C 268.237 196.646,267.752 196.224,260.454 186.826 C 251.018 174.675,249.588 170.178,250.140 154.400 C 250.593 141.464,251.567 138.830,260.539 126.273 C 268.041 115.772,268.881 115.161,291.272 103.922 C 297.591 100.750,305.193 99.811,324.600 99.805 C 347.280 99.798,352.884 100.847,362.762 106.947 C 365.810 108.829,369.243 110.138,372.400 110.621 C 375.721 111.129,378.976 112.363,380.304 113.617 C 381.885 115.110,385.715 116.923,387.383 116.967 C 388.052 116.985,388.825 117.146,389.100 117.324 C 389.375 117.502,389.603 117.502,389.606 117.324 C 389.609 117.146,389.780 117.265,389.985 117.589 C 390.304 118.093,390.395 118.079,390.620 117.491 C 390.765 117.114,391.048 116.906,391.248 117.030 C 391.449 117.154,391.528 117.393,391.424 117.561 C 391.320 117.729,391.480 117.867,391.779 117.867 C 392.079 117.867,392.239 117.645,392.135 117.374 C 392.031 117.103,392.166 116.745,392.435 116.579 C 392.746 116.386,392.821 116.443,392.640 116.735 C 392.484 116.987,392.541 117.510,392.766 117.897 C 393.116 118.497,393.177 118.435,393.188 117.471 C 393.199 116.414,393.242 116.385,393.873 117.016 C 394.474 117.617,394.594 117.623,394.995 117.074 C 395.394 116.529,395.496 116.542,395.897 117.184 C 396.593 118.299,396.108 119.546,395.065 119.319 C 394.428 119.180,394.344 119.232,394.745 119.517 C 395.206 119.843,395.206 119.931,394.745 120.085 C 394.338 120.221,394.182 121.320,394.128 124.433 C 394.088 126.725,393.965 129.050,393.853 129.600 C 393.742 130.150,393.365 133.210,393.015 136.400 C 389.929 164.547,384.003 174.400,370.162 174.400 C 361.347 174.400,357.244 167.717,356.411 152.000 C 355.979 143.865,355.456 142.548,349.974 135.789 C 344.300 128.794,340.944 127.303,328.656 126.321 C 311.848 124.978,301.097 128.208,291.784 137.400 C 285.791 143.316,284.124 152.571,287.318 162.205 C 289.714 169.432,291.169 171.168,298.067 175.035 C 300.340 176.309,304.090 178.597,306.400 180.118 C 312.744 184.297,314.446 185.047,323.310 187.573 C 328.657 189.097,331.343 190.309,337.208 193.846 C 339.995 195.527,344.157 197.546,347.743 198.957 C 355.945 202.184,358.763 204.242,369.987 215.200 C 377.253 222.295,381.267 241.040,378.422 254.600 C 375.904 266.605,374.111 271.593,371.225 274.627 C 363.137 283.129,359.447 286.238,354.703 288.547 C 352.120 289.805,348.160 291.909,345.903 293.223 C 335.424 299.323,328.072 300.586,303.000 300.595 C 278.017 300.603,271.236 299.528,262.010 294.098 C 246.477 284.956,240.118 284.994,226.383 294.307 C 219.125 299.228,215.231 300.170,202.200 300.157 C 188.947 300.143,183.277 298.488,177.000 292.799 C 175.240 291.204,172.360 288.741,170.600 287.325 C 166.572 284.085,164.678 281.691,161.958 276.408 C 160.771 274.102,158.310 269.970,156.490 267.225 C 152.692 261.499,151.712 259.559,149.751 253.886 C 147.762 248.134,145.982 244.585,143.212 240.848 C 141.893 239.070,139.802 236.036,138.565 234.107 C 134.970 228.502,133.291 227.192,129.716 227.209 C 122.658 227.241,119.491 233.144,114.592 255.400 C 111.473 269.572,111.157 270.300,104.033 279.769 C 98.670 286.897,98.729 286.841,89.800 293.445 C 82.197 299.068,75.402 300.800,60.940 300.800 C 49.110 300.800,40.225 299.258,34.181 296.155 C 26.921 292.429,9.880 289.453,7.519 291.499 C 6.903 292.033,6.812 291.986,6.566 291.007 C 6.366 290.212,6.204 290.067,5.953 290.462 C 5.696 290.867,5.611 290.811,5.606 290.233 C 5.596 289.010,5.206 289.737,4.848 291.645 C 4.520 293.389,4.302 293.270,3.822 291.084 C 3.687 290.470,3.422 290.063,3.234 290.179 C 3.045 290.296,2.805 290.063,2.700 289.662 C 2.596 289.261,2.215 288.933,1.855 288.933 C 1.094 288.933,0.854 296.539,1.600 297.000 C 1.820 297.136,2.000 297.755,2.000 298.375 C 2.000 298.995,2.270 299.726,2.600 300.000 C 2.930 300.274,3.200 300.825,3.200 301.225 C 3.200 301.625,3.380 302.064,3.600 302.200 C 3.820 302.336,4.000 302.943,4.000 303.549 C 4.000 304.768,5.684 306.630,7.000 306.865 C 7.466 306.948,7.853 307.382,7.928 307.904 C 8.004 308.438,8.336 308.800,8.749 308.800 C 9.807 308.800,12.000 311.276,12.000 312.470 C 12.000 313.038,12.270 313.726,12.600 314.000 C 12.930 314.274,13.200 314.718,13.200 314.988 C 13.200 315.637,14.351 317.922,14.825 318.216 C 15.031 318.343,15.200 318.765,15.200 319.154 C 15.200 319.543,15.650 320.283,16.200 320.800 C 16.750 321.317,17.200 322.130,17.200 322.608 C 17.200 323.894,18.179 325.629,19.781 327.182 C 20.561 327.938,21.200 328.846,21.200 329.198 C 21.200 330.021,21.979 330.800,22.802 330.800 C 23.619 330.800,26.000 333.235,26.000 334.070 C 26.000 334.418,26.270 334.926,26.600 335.200 C 26.930 335.474,27.200 336.098,27.200 336.588 C 27.200 337.557,28.225 339.845,28.825 340.216 C 29.031 340.343,29.200 340.758,29.200 341.137 C 29.200 341.918,33.161 346.000,33.918 346.000 C 35.511 346.000,39.200 349.361,39.200 350.811 C 39.200 351.413,39.626 352.261,40.200 352.800 C 40.750 353.317,41.200 353.938,41.200 354.180 C 41.200 355.033,46.590 360.000,47.515 360.000 C 48.973 360.000,52.000 362.025,52.000 363.000 C 52.000 363.253,52.450 363.883,53.000 364.400 C 53.550 364.917,54.000 365.629,54.000 365.983 C 54.000 366.828,58.032 370.800,58.889 370.800 C 59.254 370.800,59.657 370.969,59.784 371.175 C 60.155 371.775,62.443 372.800,63.412 372.800 C 63.902 372.800,64.526 373.070,64.800 373.400 C 65.074 373.730,65.601 374.000,65.971 374.000 C 66.796 374.000,69.200 376.412,69.200 377.239 C 69.200 378.026,69.994 378.800,70.802 378.800 C 71.154 378.800,72.063 379.442,72.822 380.226 C 74.074 381.522,75.373 382.311,77.300 382.945 C 77.685 383.071,78.000 383.541,78.000 383.987 C 78.000 384.616,78.261 384.800,79.151 384.800 C 79.784 384.800,80.526 385.070,80.800 385.400 C 81.074 385.730,81.625 386.000,82.025 386.000 C 82.425 386.000,82.864 386.180,83.000 386.400 C 83.136 386.620,83.755 386.800,84.375 386.800 C 84.995 386.800,85.726 387.070,86.000 387.400 C 86.274 387.730,86.988 388.000,87.587 388.000 C 88.750 388.000,90.000 389.072,90.000 390.070 C 90.000 390.830,91.147 391.871,92.195 392.063 C 92.633 392.144,93.055 392.567,93.134 393.005 C 93.303 393.941,95.145 396.000,95.813 396.000 C 96.442 396.000,98.728 397.160,99.016 397.625 C 99.143 397.831,99.766 398.000,100.400 398.000 C 101.034 398.000,101.664 398.180,101.800 398.400 C 101.936 398.620,102.825 398.800,103.775 398.800 C 104.822 398.800,105.698 399.036,106.000 399.400 C 106.440 399.930,117.375 400.000,200.000 400.000 C 282.625 400.000,293.560 399.930,294.000 399.400 C 294.302 399.036,295.178 398.800,296.225 398.800 C 297.175 398.800,298.064 398.620,298.200 398.400 C 298.336 398.180,298.966 398.000,299.600 398.000 C 300.234 398.000,300.857 397.831,300.984 397.625 C 301.272 397.160,303.558 396.000,304.187 396.000 C 304.855 396.000,306.697 393.941,306.866 393.005 C 306.945 392.567,307.367 392.144,307.805 392.063 C 308.889 391.864,310.000 390.821,310.000 390.000 C 310.000 389.037,311.287 388.000,312.483 388.000 C 313.043 388.000,313.726 387.730,314.000 387.400 C 314.274 387.070,315.005 386.800,315.625 386.800 C 316.245 386.800,316.864 386.620,317.000 386.400 C 317.136 386.180,317.575 386.000,317.975 386.000 C 318.375 386.000,318.926 385.730,319.200 385.400 C 319.474 385.070,320.216 384.800,320.849 384.800 C 321.739 384.800,322.000 384.616,322.000 383.987 C 322.000 383.541,322.315 383.071,322.700 382.945 C 324.627 382.311,325.926 381.522,327.178 380.226 C 327.937 379.442,328.846 378.800,329.198 378.800 C 330.021 378.800,330.800 378.021,330.800 377.198 C 330.800 376.381,333.235 374.000,334.070 374.000 C 334.418 374.000,334.926 373.730,335.200 373.400 C 335.474 373.070,336.098 372.800,336.588 372.800 C 337.557 372.800,339.845 371.775,340.216 371.175 C 340.343 370.969,340.758 370.800,341.137 370.800 C 341.990 370.800,346.000 366.806,346.000 365.957 C 346.000 365.617,346.450 364.917,347.000 364.400 C 347.550 363.883,348.000 363.253,348.000 363.000 C 348.000 362.017,351.030 360.000,352.505 360.000 C 353.435 360.000,358.800 355.022,358.800 354.160 C 358.800 353.929,359.250 353.317,359.800 352.800 C 360.374 352.261,360.800 351.413,360.800 350.811 C 360.800 349.346,364.492 346.000,366.108 346.000 C 366.861 346.000,370.800 341.895,370.800 341.111 C 370.800 340.746,370.969 340.343,371.175 340.216 C 371.775 339.845,372.800 337.557,372.800 336.588 C 372.800 336.098,373.070 335.474,373.400 335.200 C 373.730 334.926,374.000 334.399,374.000 334.029 C 374.000 333.204,376.412 330.800,377.239 330.800 C 378.026 330.800,378.800 330.006,378.800 329.198 C 378.800 328.846,379.439 327.938,380.219 327.182 C 381.821 325.629,382.800 323.894,382.800 322.608 C 382.800 322.130,383.250 321.317,383.800 320.800 C 384.350 320.283,384.800 319.543,384.800 319.154 C 384.800 318.765,384.969 318.343,385.175 318.216 C 385.649 317.922,386.800 315.637,386.800 314.988 C 386.800 314.718,387.070 314.274,387.400 314.000 C 387.730 313.726,388.000 313.019,388.000 312.429 C 388.000 311.263,390.194 308.800,391.233 308.800 C 392.264 308.800,396.000 304.691,396.000 303.557 C 396.000 302.989,396.442 302.125,397.000 301.600 C 397.764 300.883,398.000 300.257,398.000 298.954 C 398.000 298.015,398.180 297.136,398.400 297.000 C 398.620 296.864,398.800 296.065,398.800 295.225 C 398.800 294.356,399.058 293.484,399.400 293.200 C 400.313 292.443,400.313 118.757,399.400 118.000 C 399.070 117.726,398.800 117.175,398.800 116.775 C 398.800 116.375,398.639 115.948,398.443 115.826 C 398.234 115.697,398.230 116.227,398.433 117.103 C 398.885 119.050,398.881 119.297,398.400 119.000 C 398.180 118.864,398.000 118.234,398.000 117.600 C 398.000 116.966,397.795 116.321,397.545 116.166 C 397.219 115.965,397.160 116.329,397.338 117.442 C 397.541 118.710,397.512 118.822,397.186 118.044 C 396.965 117.519,396.892 116.439,397.022 115.644 C 397.211 114.495,397.164 114.323,396.792 114.800 C 396.395 115.310,396.360 115.290,396.562 114.667 C 396.693 114.264,396.819 113.364,396.843 112.667 C 396.881 111.527,396.925 111.577,397.279 113.165 C 397.564 114.442,397.772 114.773,398.030 114.365 C 398.311 113.921,398.396 113.971,398.425 114.600 C 398.447 115.059,398.552 115.179,398.670 114.883 C 398.830 114.487,399.008 114.475,399.439 114.832 C 399.912 115.225,400.000 114.827,400.000 112.298 C 400.000 110.119,399.836 109.162,399.400 108.800 C 398.983 108.454,398.800 107.533,398.800 105.775 C 398.800 104.385,398.620 103.136,398.400 103.000 C 398.180 102.864,398.000 101.985,398.000 101.046 C 398.000 99.743,397.764 99.117,397.000 98.400 C 396.429 97.863,396.000 97.013,396.000 96.417 C 396.000 95.255,392.242 91.200,391.166 91.200 C 390.177 91.200,388.000 88.676,388.000 87.530 C 388.000 86.962,387.730 86.274,387.400 86.000 C 387.070 85.726,386.800 85.282,386.800 85.012 C 386.800 84.363,385.649 82.078,385.175 81.784 C 384.969 81.657,384.800 81.235,384.800 80.846 C 384.800 80.457,384.350 79.717,383.800 79.200 C 383.250 78.683,382.800 77.870,382.800 77.392 C 382.800 76.106,381.821 74.371,380.219 72.818 C 379.439 72.062,378.800 71.154,378.800 70.802 C 378.800 69.979,378.021 69.200,377.198 69.200 C 376.381 69.200,374.000 66.765,374.000 65.930 C 374.000 65.582,373.730 65.074,373.400 64.800 C 373.070 64.526,372.800 63.902,372.800 63.412 C 372.800 62.443,371.775 60.155,371.175 59.784 C 370.969 59.657,370.800 59.242,370.800 58.863 C 370.800 58.082,366.839 54.000,366.082 54.000 C 364.489 54.000,360.800 50.639,360.800 49.189 C 360.800 48.587,360.374 47.739,359.800 47.200 C 359.250 46.683,358.800 46.062,358.800 45.820 C 358.800 44.967,353.410 40.000,352.485 40.000 C 351.027 40.000,348.000 37.975,348.000 37.000 C 348.000 36.747,347.550 36.117,347.000 35.600 C 346.450 35.083,346.000 34.371,346.000 34.017 C 346.000 33.172,341.968 29.200,341.111 29.200 C 340.746 29.200,340.343 29.031,340.216 28.825 C 339.845 28.225,337.557 27.200,336.588 27.200 C 336.098 27.200,335.474 26.930,335.200 26.600 C 334.926 26.270,334.399 26.000,334.029 26.000 C 333.204 26.000,330.800 23.588,330.800 22.761 C 330.800 21.974,330.006 21.200,329.198 21.200 C 328.846 21.200,327.937 20.558,327.178 19.774 C 325.926 18.478,324.627 17.689,322.700 17.055 C 322.315 16.929,322.000 16.459,322.000 16.013 C 322.000 15.384,321.739 15.200,320.849 15.200 C 320.216 15.200,319.474 14.930,319.200 14.600 C 318.926 14.270,318.375 14.000,317.975 14.000 C 317.575 14.000,317.136 13.820,317.000 13.600 C 316.864 13.380,316.245 13.200,315.625 13.200 C 315.005 13.200,314.274 12.930,314.000 12.600 C 313.726 12.270,313.012 12.000,312.413 12.000 C 311.250 12.000,310.000 10.928,310.000 9.930 C 310.000 9.170,308.853 8.129,307.805 7.937 C 307.367 7.856,306.945 7.433,306.866 6.995 C 306.697 6.059,304.855 4.000,304.187 4.000 C 303.558 4.000,301.272 2.840,300.984 2.375 C 300.857 2.169,300.234 2.000,299.600 2.000 C 298.966 2.000,298.336 1.820,298.200 1.600 C 298.064 1.380,297.175 1.200,296.225 1.200 C 295.178 1.200,294.302 0.964,294.000 0.600 C 293.243 -0.313,106.757 -0.313,106.000 0.600 M395.027 115.956 C 394.888 116.181,394.478 116.251,394.116 116.113 C 393.538 115.891,393.552 115.826,394.229 115.580 C 395.124 115.256,395.384 115.378,395.027 115.956 " stroke="none" fill="#F80" fill-rule="evenodd"></path></g></svg>